<?xml version="1.0" encoding="UTF-8" standalone="no"?>
<svg
   xmlns:dc="http://purl.org/dc/elements/1.1/"
   xmlns:cc="http://creativecommons.org/ns#"
   xmlns:rdf="http://www.w3.org/1999/02/22-rdf-syntax-ns#"
   xmlns:svg="http://www.w3.org/2000/svg"
   xmlns="http://www.w3.org/2000/svg"
   xmlns:sodipodi="http://sodipodi.sourceforge.net/DTD/sodipodi-0.dtd"
   xmlns:inkscape="http://www.inkscape.org/namespaces/inkscape"
   width="25"
   height="25"
   viewBox="0 0 15 15"
   class="feather feather-github"
   version="1.1"
   id="svg4"
   sodipodi:docname="github.svg"
   inkscape:version="0.92.3 (2405546, 2018-03-11)"
   style="fill:none;stroke:currentColor;stroke-width:2;stroke-linecap:round;stroke-linejoin:round">
  <metadata
     id="metadata10">
    <rdf:RDF>
      <cc:Work
         rdf:about="">
        <dc:format>image/svg+xml</dc:format>
        <dc:type
           rdf:resource="http://purl.org/dc/dcmitype/StillImage" />
        <dc:title></dc:title>
      </cc:Work>
    </rdf:RDF>
  </metadata>
  <defs
     id="defs8" />
  <sodipodi:namedview
     pagecolor="#ffffff"
     bordercolor="#666666"
     borderopacity="1"
     objecttolerance="10"
     gridtolerance="10"
     guidetolerance="10"
     inkscape:pageopacity="0"
     inkscape:pageshadow="2"
     inkscape:window-width="2736"
     inkscape:window-height="1699"
     id="namedview6"
     showgrid="false"
     inkscape:zoom="14.981019"
     inkscape:cx="-9.4326715"
     inkscape:cy="17.843305"
     inkscape:window-x="-13"
     inkscape:window-y="-13"
     inkscape:window-maximized="1"
     inkscape:current-layer="svg4" />
  <path
     d="M 5.7142134,12.386677 C 2.4591502,13.363196 2.4591502,10.759145 1.1571248,10.433639 m 9.1141772,3.906076 v -2.51942 A 2.1939126,2.1939126 0 0 0 9.6593506,10.121153 C 11.70353,9.8932994 13.851872,9.1185944 13.851872,5.5640644 a 3.5415088,3.5415088 0 0 0 -0.97652,-2.4412975 3.3006341,3.3006341 0 0 0 -0.05859,-2.45431777 c 0,0 -0.768195,-0.2278544 -2.545459,0.96349867 a 8.7105493,8.7105493 0 0 0 -4.5570886,0 C 3.9369489,0.44059473 3.168754,0.66844913 3.168754,0.66844913 A 3.3006341,3.3006341 0 0 0 3.1101632,3.1227669 3.5415088,3.5415088 0 0 0 2.1336441,5.5835954 c 0,3.528488 2.1483418,4.303194 4.1925215,4.5570876 a 2.1939126,2.1939126 0 0 0 -0.6119522,1.679612 v 2.51942"
     id="path2"
     style="stroke:#ffffff;stroke-width:1.30202532;stroke-opacity:1"
     inkscape:connector-curvature="0" />
</svg>
